<?xml version="1.0" encoding="utf-8"?>
<!-- Generator: Adobe Illustrator 15.1.0, SVG Export Plug-In . SVG Version: 6.00 Build 0)  -->
<!DOCTYPE svg PUBLIC "-//W3C//DTD SVG 1.1//EN" "http://www.w3.org/Graphics/SVG/1.1/DTD/svg11.dtd">
<svg version="1.1" id="Layer_1" xmlns="http://www.w3.org/2000/svg" xmlns:xlink="http://www.w3.org/1999/xlink" x="0px" y="0px"
	 width="20px" height="20px" viewBox="554.316 343.747 20 20" enable-background="new 554.316 343.747 20 20" xml:space="preserve">
<path fill="#6FBA2C" d="M555.952,345.768c-0.757-0.021-0.88,1.064-0.144,1.207l1.351,0.307c0.716,3.438,1.493,6.854,2.25,10.291
	c0.082,0.267,0.327,0.471,0.614,0.471h10.782c0.839,0.021,0.839-1.248,0-1.228h-10.291l-0.266-1.228h11.11
	c0.286,0,0.531-0.204,0.593-0.471l1.351-6.137c0.082-0.389-0.204-0.736-0.594-0.736c-4.705,0-9.391,0-14.096,0l-0.328-1.576
	c-0.041-0.246-0.225-0.43-0.47-0.47l-1.739-0.409C556.034,345.768,555.993,345.768,555.952,345.768L555.952,345.768z
	 M562.581,358.452c-0.9,0-1.637,0.737-1.637,1.637c0,0.9,0.736,1.637,1.637,1.637c0.9,0,1.637-0.736,1.637-1.637
	C564.218,359.19,563.481,358.452,562.581,358.452z M568.31,358.452c-0.9,0-1.637,0.737-1.637,1.637c0,0.9,0.736,1.637,1.637,1.637
	s1.637-0.736,1.637-1.637C569.946,359.19,569.21,358.452,568.31,358.452z"/>
<rect x="554.316" y="343.747" fill="none" width="20" height="20"/>
</svg>
