<?xml version="1.0" encoding="utf-8"?>
<!-- Generator: Adobe Illustrator 15.1.0, SVG Export Plug-In . SVG Version: 6.00 Build 0)  -->
<!DOCTYPE svg PUBLIC "-//W3C//DTD SVG 1.1//EN" "http://www.w3.org/Graphics/SVG/1.1/DTD/svg11.dtd">
<svg version="1.1" id="Logo_FIXED" xmlns="http://www.w3.org/2000/svg" xmlns:xlink="http://www.w3.org/1999/xlink" x="0px" y="0px"
	 width="24px" height="24.001px" viewBox="551.999 460.167 24 24.001" enable-background="new 551.999 460.167 24 24.001"
	 xml:space="preserve">
<title>Twitter_Logo_Blue</title>
<rect x="551.999" y="460.167" fill="none" width="24" height="24.001"/>
<path fill="#9b9b9d" d="M560.292,480.288c7.541,0,11.667-6.254,11.667-11.667c0-0.177,0-0.353-0.008-0.528c0.801-0.584,1.496-1.303,2.047-2.119
	c-0.752,0.328-1.543,0.552-2.357,0.648c0.855-0.513,1.494-1.32,1.799-2.271c-0.809,0.479-1.688,0.815-2.607,0.991
	c-1.551-1.655-4.15-1.735-5.807-0.176c-1.063,1-1.519,2.495-1.183,3.918c-3.294-0.168-6.373-1.719-8.452-4.286
	c-1.088,1.871-0.537,4.271,1.271,5.479c-0.656-0.017-1.288-0.192-1.864-0.512c0,0.016,0,0.031,0,0.047
	c0,1.952,1.375,3.632,3.295,4.023c-0.608,0.168-1.24,0.191-1.855,0.072c0.536,1.671,2.079,2.815,3.831,2.847
	c-1.455,1.144-3.247,1.76-5.094,1.76c-0.328,0-0.656-0.025-0.976-0.057C555.886,479.649,558.061,480.288,560.292,480.288"/>
</svg>
