<?xml version="1.0" encoding="utf-8"?>
<!-- Generator: Adobe Illustrator 15.1.0, SVG Export Plug-In . SVG Version: 6.00 Build 0)  -->
<!DOCTYPE svg PUBLIC "-//W3C//DTD SVG 1.1//EN" "http://www.w3.org/Graphics/SVG/1.1/DTD/svg11.dtd">
<svg version="1.1" id="Capa_1" xmlns="http://www.w3.org/2000/svg" xmlns:xlink="http://www.w3.org/1999/xlink" x="0px" y="0px"
	 width="24px" height="24px" viewBox="418.565 262.118 24 24" enable-background="new 418.565 262.118 24 24" xml:space="preserve">
<g>
	<path fill="#9b9b9d" d="M435.571,264.118h-2.596c-2.908,0-4.798,1.932-4.798,4.922v2.264h-2.596c-0.228,0-0.415,0.187-0.415,0.416v3.281
		c0,0.229,0.187,0.416,0.415,0.416h2.596v8.287c0,0.228,0.187,0.415,0.416,0.415h3.406c0.228,0,0.416-0.187,0.416-0.415v-8.308
		h3.052c0.229,0,0.416-0.187,0.416-0.416v-3.281c0-0.104-0.042-0.208-0.124-0.291c-0.083-0.083-0.188-0.125-0.292-0.125h-3.074
		v-1.911c0-0.914,0.229-1.391,1.413-1.391h1.745c0.229,0,0.415-0.187,0.415-0.416v-3.032
		C435.965,264.305,435.799,264.118,435.571,264.118z"/>
</g>
<rect x="418.565" y="262.118" fill="none" width="24" height="24"/>
</svg>
