<svg version="1.1" id="Layer_1" xmlns="http://www.w3.org/2000/svg" xmlns:xlink="http://www.w3.org/1999/xlink" x="0px" y="0px"
	 width="24px" height="24px" viewBox="552 342 24 24" enable-background="new 552 342 24 24" xml:space="preserve">
<g>
	<path fill="#abcd03" d="M575.76,349.2c0,0-0.24-1.68-0.96-2.4c-0.96-0.96-1.92-0.96-2.399-0.96c-3.36-0.24-8.4-0.24-8.4-0.24l0,0
		c0,0-5.04,0-8.4,0.24c-0.48,0-1.44,0-2.4,0.96c-0.72,0.72-0.96,2.4-0.96,2.4s-0.24,1.92-0.24,3.84v1.8c0,2.04,0.24,3.96,0.24,3.96
		s0.24,1.681,0.96,2.4c0.96,0.96,2.16,0.96,2.64,1.08c1.92,0.12,8.16,0.12,8.16,0.12s5.04,0,8.4-0.24c0.479,0,1.439-0.12,2.399-0.96
		c0.72-0.72,0.96-2.4,0.96-2.4s0.24-1.92,0.24-3.84v-1.92C576,351.12,575.76,349.2,575.76,349.2z M561.6,357.12v-6.72l6.48,3.36
		L561.6,357.12z"/>
</g>
<rect x="552" y="342" fill="none" width="24" height="24"/>
</svg>
